<?xml version="1.0" standalone="no"?>
<!DOCTYPE svg PUBLIC "-//W3C//DTD SVG 20010904//EN"
 "http://www.w3.org/TR/2001/REC-SVG-20010904/DTD/svg10.dtd">
<svg version="1.0" xmlns="http://www.w3.org/2000/svg"
 width="1024.000000pt" height="1024.000000pt" viewBox="0 0 1024.000000 1024.000000"
 preserveAspectRatio="xMidYMid meet">
<metadata>
Created by potrace 1.14, written by Peter Selinger 2001-2017
</metadata>
<g transform="translate(0.000000,1024.000000) scale(0.100000,-0.100000)"
fill="#000000" stroke="none">
<path d="M2028 10004 c-3 -2 -36 -6 -74 -9 -38 -3 -80 -7 -94 -10 -14 -3 -40
-7 -57 -10 -68 -11 -99 -16 -143 -26 -25 -6 -53 -12 -62 -14 -105 -22 -294
-89 -418 -149 -342 -165 -602 -426 -768 -771 -99 -205 -155 -404 -196 -695
-24 -164 -24 -567 -1 -715 2 -16 7 -52 11 -80 9 -78 13 -107 20 -145 3 -19 7
-46 9 -60 2 -14 13 -70 25 -125 11 -55 23 -111 26 -125 2 -14 7 -33 10 -42 3
-9 7 -25 9 -35 2 -10 11 -44 19 -75 9 -32 23 -84 32 -115 31 -117 144 -443
207 -598 98 -243 156 -369 299 -655 142 -284 223 -436 325 -608 24 -41 43 -75
43 -78 0 -3 289 -485 323 -538 6 -11 59 -94 116 -185 138 -221 230 -362 452
-696 169 -253 227 -338 435 -642 34 -50 156 -226 270 -390 257 -368 267 -382
331 -476 29 -42 62 -100 73 -130 24 -64 90 -135 152 -163 38 -17 102 -76 238
-224 27 -29 188 -200 325 -345 25 -27 107 -114 325 -345 14 -15 84 -89 155
-165 72 -76 148 -157 170 -180 62 -66 278 -295 322 -343 l40 -42 176 2 176 3
-61 65 c-34 36 -118 126 -188 200 -71 74 -147 155 -170 180 -48 51 -257 273
-371 394 -42 45 -91 97 -109 116 -18 19 -96 102 -174 185 -126 133 -182 192
-320 339 -21 23 -65 69 -97 102 l-59 61 88 33 c117 43 287 128 471 235 130 76
689 467 721 505 25 29 143 111 148 103 4 -6 233 -240 509 -519 275 -280 572
-582 660 -670 516 -525 965 -983 1125 -1147 l183 -188 182 3 182 3 -155 160
c-318 328 -800 819 -1558 1588 -489 497 -804 817 -884 900 l-47 48 30 27 c17
15 52 45 79 67 27 22 58 49 70 60 12 11 60 54 106 95 123 110 314 284 350 320
54 53 57 54 83 29 13 -13 57 -55 98 -94 41 -38 140 -131 219 -207 80 -75 165
-155 190 -178 44 -41 258 -243 410 -386 41 -40 93 -88 115 -109 67 -62 274
-257 319 -300 23 -22 76 -71 117 -110 41 -38 142 -134 224 -211 83 -78 166
-156 185 -174 31 -29 169 -159 328 -309 31 -29 91 -86 132 -125 42 -39 140
-132 219 -206 79 -74 161 -151 181 -170 65 -61 310 -292 500 -470 63 -60 149
-140 190 -179 l75 -71 200 0 200 0 -56 53 c-56 52 -268 251 -345 324 -22 21
-98 92 -168 158 -70 66 -147 138 -170 160 -152 144 -228 215 -351 331 -77 73
-156 146 -175 164 -19 18 -100 94 -179 169 -80 75 -159 150 -176 166 -30 27
-254 239 -329 310 -150 141 -314 296 -345 325 -106 100 -321 301 -367 345
-107 101 -290 273 -324 305 -19 18 -93 88 -165 155 -71 68 -148 140 -170 161
-22 20 -98 92 -168 158 -71 67 -153 144 -183 171 -30 28 -54 54 -54 59 0 4 46
54 103 111 194 194 436 448 604 632 l38 43 65 -62 c36 -34 145 -138 244 -232
98 -94 197 -189 220 -210 22 -21 120 -114 216 -206 96 -92 198 -189 227 -216
98 -94 376 -359 423 -404 136 -130 397 -380 434 -414 38 -36 266 -254 412
-393 352 -336 444 -424 474 -452 19 -18 111 -105 204 -194 225 -215 229 -219
254 -241 l22 -19 0 181 0 182 -39 38 c-21 20 -111 107 -201 192 -89 85 -188
180 -220 210 -79 76 -361 345 -440 420 -36 34 -136 130 -224 213 -177 170
-205 197 -430 411 -87 83 -178 169 -201 191 -23 22 -115 110 -204 195 -89 85
-188 180 -220 210 -102 98 -423 404 -461 440 -347 328 -388 371 -362 382 4 2
48 50 97 108 50 58 96 111 102 118 7 7 61 72 120 145 59 73 114 140 123 149 8
9 74 93 145 187 72 93 133 170 136 170 4 1 20 -11 36 -26 17 -16 63 -57 104
-93 40 -36 83 -74 95 -85 11 -11 59 -54 105 -95 46 -41 86 -77 89 -80 3 -3 48
-43 100 -90 52 -47 102 -92 110 -100 8 -8 78 -71 155 -140 132 -117 165 -147
241 -217 17 -15 64 -57 104 -93 40 -36 85 -76 100 -90 30 -27 54 -49 200 -180
52 -47 100 -89 106 -95 23 -22 169 -153 294 -265 52 -47 97 -87 100 -90 3 -3
25 -23 50 -45 25 -22 89 -80 143 -129 54 -49 107 -98 120 -108 l22 -20 3 164
3 163 -59 55 c-53 50 -195 179 -246 223 -20 18 -155 140 -202 182 -31 29 -163
147 -188 168 -12 10 -41 37 -66 60 -25 23 -83 76 -129 117 -46 41 -94 84 -105
95 -12 11 -42 38 -66 59 -72 64 -211 189 -245 221 -17 17 -49 45 -71 64 -21
18 -59 52 -84 75 -25 23 -108 97 -185 166 -77 69 -142 127 -145 130 -4 4 -272
245 -322 290 -16 14 -11 25 73 145 123 177 282 426 362 567 72 126 199 377
212 418 4 14 11 30 15 35 12 17 66 185 85 266 l18 77 72 -57 c81 -62 324 -250
515 -397 69 -53 139 -107 155 -120 31 -24 189 -145 447 -342 81 -61 149 -112
152 -112 3 0 6 67 6 150 l0 149 -127 98 c-207 159 -214 165 -318 243 -55 41
-102 77 -105 80 -3 4 -203 158 -445 345 -242 186 -448 345 -458 354 -18 15
-21 14 -44 -14 l-25 -30 17 33 c9 18 13 37 10 42 -3 5 -52 32 -108 61 -99 50
-218 112 -402 209 -49 26 -184 96 -300 155 -115 59 -246 127 -290 151 -205
109 -1244 624 -1495 741 -41 19 -113 53 -160 75 -118 55 -591 268 -595 268 -3
0 -28 11 -57 24 -78 36 -405 171 -538 222 -63 24 -124 48 -135 53 -52 23 -328
122 -518 185 -232 77 -599 180 -752 211 -22 5 -44 9 -50 11 -16 4 -207 43
-240 49 -79 14 -261 40 -365 50 -36 4 -78 9 -95 12 -38 6 -612 13 -617 7z"/>
</g>
</svg>
